<svg xmlns="http://www.w3.org/2000/svg" xmlns:xlink="http://www.w3.org/1999/xlink" id="layer" x="0px" y="0px" viewBox="0 0 652 652" style="enable-background:new 0 0 652 652;" xml:space="preserve"><style type="text/css">	.st0{fill:#00BBE3;}	.st1{fill:#BABCBE;}</style><g>	<g>		<g>			<path class="st0" d="M67.6,367.7c11-4.1,19.9-10.5,25.7-18.6c7.4-10.8,8.6-25.2,2.7-35.8c-2.7-5.1-7.1-10.8-14.5-13    c-8.4-2.5-15.2,0.3-18.6,2.9c-11.2,8.3-5.9,28.6,12,27c-8.1,2.7-15.4,1-20.1-3.4c-6.8-5.9-8.3-15.2-5.7-23.5    c1.5-4.9,4.4-9.3,8.4-12.7c12.7-10.1,30.4-8.6,42.6-0.2c10.1,7.1,15.7,18.6,16.6,30.6C117.7,344,101.9,368.7,67.6,367.7"></path>			<path class="st0" d="M69.6,275.1c-11,4.1-19.9,10.5-25.7,18.6c-7.4,10.8-8.6,25.2-2.7,35.8c2.7,5.1,7.1,10.8,14.5,13    c8.4,2.5,15.2-0.3,18.6-2.9c11.2-8.3,5.9-28.6-12-27c8.1-2.7,15.4-1,20.1,3.4c6.8,5.9,8.3,15.2,5.7,23.5    c-1.5,4.9-4.4,9.3-8.4,12.7c-12.7,10.1-30.4,8.6-42.6,0.2c-10.1-7.1-15.7-18.6-16.6-30.6C19.4,298.8,35.3,274.1,69.6,275.1"></path>		</g>		<path class="st0" d="M174.8,344.7h-15.5c-5.6,0-10.8-1-15.5-3c-6.3-2.7-9.3-6.4-9.3-11.2v-43.9c0-1.9,0.7-3,2-3.5   c0.5-0.2,2-0.2,4.4-0.2c2.5,0,3.7,1.4,3.7,3.7v12.7h30.1c16.1,0,23.8,4.7,23.8,14.2v16.7C198.7,340,190.7,344.7,174.8,344.7z    M188.7,313.6c0-4.1-4.6-5.9-13.7-5.9h-30.2v22.8c0,2,2.2,3.5,6.6,4.7c3,0.7,6.3,1,9.3,1H175c4.6,0,7.4-0.2,8.8-0.3   c3.4-0.8,5.1-2.9,5.1-5.9v-16.4C188.9,313.6,188.7,313.6,188.7,313.6z"></path>		<path class="st0" d="M267.6,326.6h-50.2c-0.3,6.4,4.7,9.6,15.5,9.6c0.7,0,1.5,0,2.7,0c1.2,0,2-0.2,2.4-0.2c2.4,0,3.7,1.5,3.7,4.7   c0,2.5-1.4,3.9-3.7,3.9c-6.6,0-11-0.2-13.2-0.3c-5.6-0.5-9.6-1.7-12.3-3.9c-3.7-2.9-5.6-6.3-5.6-10.1v-16.9   c0-5.2,2.9-9.3,8.8-11.8c4.2-1.9,9.5-2.9,15.5-2.9H250c5.1,0,9.5,0.8,13.2,2.7c4.9,2.2,7.3,5.6,7.3,10.1v11   C270.3,325.3,269.5,326.6,267.6,326.6z M260.5,312.3c0-3.4-6.9-5.1-20.6-5.1c-1.7,0-3.4,0-5.2,0.2c-1.7,0-2.5,0.2-2.4,0.2   c-10.1,0-15.2,1.7-15.2,5.2v5.2h43.4V312.3z"></path>		<path class="st0" d="M334.3,341.8c-4.7,2-9.8,2.9-15.4,2.9h-15.5c-15.7,0-23.8-4.4-24.2-13c-0.2-4.9-0.2-11,0.2-18.2   c0.3-9.5,8.3-14.2,23.8-14.2h30.2v-12.7c0-2.4,1.2-3.7,3.7-3.7c2.2,0,3.7,0.2,4.4,0.3c1.4,0.3,2,1.5,2,3.4v44.1   C343.6,335.6,340.6,339.3,334.3,341.8z M333.7,307.7h-30.4c-9.1,0-13.7,2-13.7,5.9v16.2c0,2.9,1.7,4.9,5.1,5.7   c1.5,0.3,4.4,0.5,8.8,0.5h14.5c10.3,0,15.7-1.9,15.7-5.7V307.7z"></path>	</g>	<g>		<g>			<g>				<path class="st1" d="M620.5,305.7c0,2-0.7,3.9-2,5.4c-1.4,1.5-3,2.2-5.1,2.2c-2,0-3.7-0.7-5.1-2.2c-1.4-1.5-2-3.2-2-5.4     c0-2,0.7-3.9,2-5.2c1.4-1.5,3-2.2,5.1-2.2c2,0,3.7,0.7,5.1,2.2C619.9,301.8,620.5,303.5,620.5,305.7z M619.3,305.7     c0-1.7-0.5-3.2-1.7-4.4s-2.5-1.9-4.2-1.9c-1.7,0-3,0.7-4.2,1.9s-1.7,2.7-1.7,4.4s0.5,3.2,1.7,4.4s2.5,1.9,4.2,1.9     c1.7,0,3-0.7,4.2-1.9S619.3,307.4,619.3,305.7z M616.8,304.5c0,1.2-0.8,1.9-2.5,1.9h-1.2l3.5,2.4c0.2,0,0.3,0.2,0.3,0.3     c0,0.2,0,0.3-0.2,0.3c-0.2,0.2-0.3,0.2-0.5,0.2c0,0-0.2,0-0.3,0l-4.9-3.4v2.7c0,0.5-0.2,0.7-0.7,0.7c-0.3,0-0.5-0.2-0.5-0.7     v-7.1c0-0.2,0.2-0.3,0.3-0.3h4.1c1.9,0,2.7,0.7,2.7,1.9v1.2H616.8z M615.6,303.5c0-0.5-0.5-0.8-1.4-0.8h-3.2v2.5h3.4     c0.8,0,1.2-0.2,1.2-0.7L615.6,303.5L615.6,303.5z"></path>			</g>		</g>		<path class="st1" d="M405.1,344.4h-27.5c-6.4,0-11.8-0.8-16.1-2.4c-6.3-2.4-9.3-6.3-9.3-11.8v-16.9c0-9.6,9.5-14.5,28.6-14.5   c1.4,0,3,0,5.1,0.2c2,0,3.4,0.2,3.9,0.2c6.3,0,11.8,0.8,16.4,2.7c6.4,2.5,9.5,6.4,9.5,11.8v29.9c0,0.3,0,0.8,0,1.2l-0.2,1.9   c-0.5,4.7-3.7,8.1-10,10.5c-4.6,1.7-10.1,2.7-16.4,2.7h-4.2c-2.4,0-3.7-1.5-3.7-4.7c0-2.4,1.4-3.7,3.7-3.7h7.3   c1.7,0,4.1-0.5,7.1-1.4c3.7-1,5.4-2,5.7-3.2C405.3,345.1,405.1,344.4,405.1,344.4z M405.3,313.6c0-2.2-1.9-4.1-5.7-5.2   c-2.7-0.8-5.4-1.2-8.3-1.2h-16.1c-3.7,0-6.4,0.2-8.1,0.5c-3.4,0.8-5.1,2.4-5.1,5.1v17.1c0,3.9,5.1,5.9,15,5.9h28v-22.1H405.3z"></path>		<path class="st1" d="M484.4,326.6h-50.2c-0.3,6.4,4.7,9.6,15.5,9.6c0.7,0,1.5,0,2.7,0c1.2,0,2-0.2,2.4-0.2c2.4,0,3.7,1.5,3.7,4.7   c0,2.5-1.4,3.9-3.7,3.9c-6.6,0-11-0.2-13.2-0.3c-5.6-0.5-9.6-1.7-12.3-3.9c-3.7-2.9-5.6-6.3-5.6-10.1v-16.9   c0-5.2,2.9-9.3,8.8-11.8c4.2-1.9,9.5-2.9,15.5-2.9h18.8c5.1,0,9.5,0.8,13.2,2.7c4.9,2.2,7.3,5.6,7.3,10.1v11   C487.1,325.3,486.2,326.6,484.4,326.6z M477.3,312.3c0-3.4-6.9-5.1-20.6-5.1c-1.7,0-3.4,0-5.2,0.2c-1.7,0-2.5,0.2-2.4,0.2   c-10.1,0-15.2,1.7-15.2,5.2v5.2h43.4V312.3z"></path>		<path class="st1" d="M542,344.7h-24.7c-5.1,0-9.5-1-13.7-3c-5.2-2.4-7.8-5.9-7.8-10.3v-5.7c0-4.7,2.4-8.4,7.4-10.8   c3.9-1.9,8.4-2.9,13.7-2.9h35.6c-0.5-3.2-5.1-4.7-13.7-4.7c-1,0-2,0-3.4,0.2c-1.4,0-2.2,0.2-2.4,0.2c-2.5,0-3.7-1.4-3.7-3.9v-1   c0-2.4,1.4-3.7,3.7-3.7c8.4,0,14.5,0.5,18.6,1.5c7.3,2,11.2,6.3,11.2,12.5v17.9C562.8,340.2,555.8,344.7,542,344.7z M516.8,320.6   c-2,0-4.2,0.3-6.4,1.2c-2.9,1-4.4,2.2-4.4,3.9v5.7c0,1.7,1.5,2.9,4.6,3.9c2.2,0.7,4.6,1,6.6,1h25c4.4,0,7.4-0.5,8.8-1.7   c1.2-1,1.7-2.9,1.7-5.9c0-0.7,0-1.9-0.2-3.5c0-1.7,0-3.2,0-4.4h-35.6V320.6z"></path>		<path class="st1" d="M597.4,307.4c-0.3,0-1-0.2-2-0.2c-1,0-1.7,0-2.4,0c-7.8,0-11.7,1.9-11.7,5.7v27.9c0,2-0.7,3-2,3.5   c-0.5,0.2-2,0.3-4.4,0.3c-2.5,0-3.9-1.4-3.9-3.9l0.2-27.9c0-9.5,8.6-14.2,26-14.2c2.4,0,3.7,1.5,3.7,4.7   C601.1,306.2,599.8,307.4,597.4,307.4z"></path>	</g></g></svg>